<svg width="26" height="26" viewBox="0 0 26 26" fill="none" xmlns="http://www.w3.org/2000/svg">
<path d="M11.8868 21.0381C11.6369 21.0589 11.387 21.0693 11.1372 21.0693C9.91905 21.0693 8.7634 20.7778 7.73268 20.2677L3.68269 20.8507L4.29697 16.7799H4.30737C3.89092 15.8637 3.64105 14.8538 3.64105 13.7814C3.64105 11.8137 4.44272 10.0334 5.73371 8.72156" stroke="#2D2B2C" stroke-width="1.56169" stroke-linecap="round" stroke-linejoin="round"/>
<path d="M12.0846 12.5112C12.5446 12.5112 12.9175 12.1477 12.9175 11.6992C12.9175 11.2507 12.5446 10.8871 12.0846 10.8871C11.6246 10.8871 11.2517 11.2507 11.2517 11.6992C11.2517 12.1477 11.6246 12.5112 12.0846 12.5112Z" fill="#2D2B2C"/>
<path d="M15.4163 12.5112C15.8763 12.5112 16.2492 12.1477 16.2492 11.6992C16.2492 11.2507 15.8763 10.8871 15.4163 10.8871C14.9563 10.8871 14.5834 11.2507 14.5834 11.6992C14.5834 12.1477 14.9563 12.5112 15.4163 12.5112Z" fill="#2D2B2C"/>
<path d="M18.7374 12.5112C19.1974 12.5112 19.5704 12.1477 19.5704 11.6992C19.5704 11.2507 19.1974 10.8871 18.7374 10.8871C18.2774 10.8871 17.9045 11.2507 17.9045 11.6992C17.9045 12.1477 18.2774 12.5112 18.7374 12.5112Z" fill="#2D2B2C"/>
<path d="M22.246 14.6976L22.8603 18.7684L18.8103 18.1854C18.0815 18.5498 17.2903 18.7996 16.4469 18.9142C16.1138 18.9662 15.7598 18.9871 15.4058 18.9871C11.2621 18.9871 7.9201 15.7283 7.9201 11.6992C7.9201 9.68978 8.74259 7.89903 10.0961 6.5768C11.4391 5.23375 13.3236 4.41125 15.4162 4.41125C19.5599 4.41125 22.9019 7.66999 22.9019 11.6992C22.9019 12.7715 22.6521 13.7814 22.2356 14.6976H22.246V14.6976Z" stroke="#2D2B2C" stroke-width="1.56169" stroke-linecap="round" stroke-linejoin="round"/>
</svg>
