<svg width="24" height="24" viewBox="0 0 24 24" fill="none" xmlns="http://www.w3.org/2000/svg">
<path fill-rule="evenodd" clip-rule="evenodd" d="M11.5365 2.08879C11.8347 1.96943 12.1674 1.96943 12.4656 2.08879L17.1551 3.96601C17.4397 4.07996 17.6263 4.35569 17.6263 4.6623V10.498L22.0298 12.2607C22.3144 12.3746 22.5011 12.6504 22.5011 12.957V18.9613C22.5011 19.4723 22.19 19.9318 21.7156 20.1217L17.1545 21.9476C16.9755 22.0192 16.7759 22.0192 16.597 21.9476L12.0359 20.1217C12.024 20.117 12.0122 20.1121 12.0005 20.107C11.9889 20.1121 11.9771 20.117 11.9652 20.1217L7.40404 21.9476C7.22513 22.0192 7.02551 22.0192 6.84659 21.9476L2.28546 20.1217C1.81105 19.9318 1.5 19.4723 1.5 18.9613V12.957C1.5 12.6504 1.68663 12.3746 1.97128 12.2607L6.3757 10.4976V4.6623C6.3757 4.35569 6.56233 4.07996 6.84697 3.96601L11.5365 2.08879ZM11.2504 14.0651V18.7921L7.87532 20.1432V15.4162L11.2504 14.0651ZM12.7506 18.7921L16.1257 20.1432V15.4162L12.7506 14.0651V18.7921ZM12.001 3.51855L9.14382 4.6623L12.001 5.80604L14.8582 4.6623L12.001 3.51855ZM16.1263 5.77039L12.751 7.12154V11.8485L16.1263 10.4974V5.77039ZM11.251 11.8485V7.12154L7.8757 5.77039V10.4974L11.251 11.8485ZM7.12532 11.8132L4.26812 12.957L7.12532 14.1007L9.98251 12.957L7.12532 11.8132ZM6.37532 20.1432V15.4162L3 14.0651V18.7921L6.37532 20.1432ZM14.0185 12.957L16.8757 11.8132L19.7329 12.957L16.8757 14.1007L14.0185 12.957ZM17.6257 15.4162L21.0011 14.0651V18.7921L17.6257 20.1432V15.4162Z" fill="#929292"/>
</svg>
