<svg width="16" height="17" viewBox="0 0 16 17" fill="none" xmlns="http://www.w3.org/2000/svg">
<path d="M5.25997 9.18669C5.6392 9.18669 5.94663 8.87926 5.94663 8.50002C5.94663 8.12079 5.6392 7.81335 5.25997 7.81335C4.88073 7.81335 4.5733 8.12079 4.5733 8.50002C4.5733 8.87926 4.88073 9.18669 5.25997 9.18669Z" fill="#747474"/>
<path d="M7.99996 9.18669C8.37919 9.18669 8.68663 8.87926 8.68663 8.50002C8.68663 8.12079 8.37919 7.81335 7.99996 7.81335C7.62072 7.81335 7.31329 8.12079 7.31329 8.50002C7.31329 8.87926 7.62072 9.18669 7.99996 9.18669Z" fill="#747474"/>
<path d="M10.7399 9.18669C11.1192 9.18669 11.4266 8.87926 11.4266 8.50002C11.4266 8.12079 11.1192 7.81335 10.7399 7.81335C10.3607 7.81335 10.0533 8.12079 10.0533 8.50002C10.0533 8.87926 10.3607 9.18669 10.7399 9.18669Z" fill="#747474"/>
<path d="M13.6266 11.0333H13.62C13.9666 10.26 14.1666 9.40001 14.1666 8.50001C14.1666 5.09334 11.4066 2.33334 7.99998 2.33334C4.59331 2.33334 1.83331 5.09334 1.83331 8.50001C1.83331 11.9067 4.59331 14.6667 7.99998 14.6667C9.00665 14.6667 9.95998 14.42 10.8 13.9933L14.1333 14.4867L13.6266 11.0333Z" stroke="#747474" stroke-width="1.5" stroke-linecap="round" stroke-linejoin="round"/>
</svg>
